<?xml version="1.0" encoding="UTF-8"?>
<svg xmlns="http://www.w3.org/2000/svg" viewBox="0 0 200 140" fill="currentColor" aria-hidden="true">
  <title>Marco the Bison</title>
  <path d="M22 78c0-9 4-15 11-18 3-9 11-14 22-14 4-7 12-12 23-12 9 0 17 4 21 10 7-3 14-3 21 0 5-2 11-1 14 4 4 0 8 2 10 6 6 1 11 5 13 11 2 6 0 12-5 16 1 4-1 8-5 10-1 5-5 8-10 9-2 4-7 6-12 5-1 6-7 10-13 9l-3 9c0 2-2 4-5 4s-5-2-5-4l-2-9c-7 0-13-3-15-9-9 1-17-2-21-9-3 1-7 1-10 0-2 4-7 6-12 5-5 1-10-2-12-7-7-1-12-7-12-14 0-3 1-6 3-8-1-1-1-2-1-4z M48 60c1-1 2-2 4-2-1-3-3-5-6-5-4 0-7 3-7 7 0 2 1 4 3 5 1-2 3-4 6-5z M70 50c5-3 11-3 16 0-1-3-5-5-9-5s-7 2-9 5z M150 70c2-1 5 0 7 2-2 4-7 5-11 3 1-2 2-4 4-5z M132 92l-3 12-3-12c2-1 4-1 6 0z"/>
</svg>
